<svg xmlns="http://www.w3.org/2000/svg" viewBox="0 0 512 512">
  <defs>
    <linearGradient id="bg" x1="0.1" y1="0" x2="0.9" y2="1">
      <stop offset="0%" stop-color="#D4764A"/>
      <stop offset="100%" stop-color="#A34425"/>
    </linearGradient>
  </defs>
  <rect width="512" height="512" rx="108" fill="url(#bg)"/>
  <!-- sitelen pona "nimi" glyph from nasin nanpa font -->
  <g transform="translate(46, 88) scale(0.42)" fill="#FDFBF7" opacity="0.92">
    <path d="M150 439V361C150 300 200 250 261 250H739C800 250 850 300 850 361V439C850 500 800 550 739 550H261C200 550 150 500 150 439ZM261 650H739C856 650 950 556 950 439V361C950 244 856 150 739 150H261C144 150 50 244 50 361V439C50 556 144 650 261 650Z"/>
  </g>
</svg>
